<?xml version="1.0" standalone="no"?>
<!DOCTYPE svg PUBLIC "-//W3C//DTD SVG 20010904//EN"
 "http://www.w3.org/TR/2001/REC-SVG-20010904/DTD/svg10.dtd">
<svg version="1.0" xmlns="http://www.w3.org/2000/svg"
 width="65.000000pt" height="79.000000pt" viewBox="0 0 65.000000 79.000000"
 preserveAspectRatio="xMidYMid meet">
<metadata>
Created by potrace 1.16, written by Peter Selinger 2001-2019
</metadata>
<g transform="translate(0.000000,79.000000) scale(0.100000,-0.100000)"
fill="#000000" stroke="none">
<path d="M233 764 c-25 -14 -54 -44 -69 -69 -21 -37 -25 -54 -22 -109 2 -35 5
-62 7 -60 3 2 16 -16 31 -40 41 -72 134 -186 150 -186 18 0 113 119 157 198
25 43 33 69 33 106 0 144 -163 235 -287 160z m154 -15 c73 -27 115 -109 93
-181 -6 -21 -15 -36 -20 -33 -6 3 -7 0 -4 -8 5 -13 -50 -101 -101 -162 l-25
-30 -21 25 c-140 175 -167 263 -102 341 45 53 116 72 180 48z"/>
<path d="M322 692 c-20 -13 -12 -167 8 -167 10 0 16 12 18 34 3 25 6 31 13 20
6 -10 9 -10 9 -1 0 6 10 12 23 12 13 0 28 5 35 12 17 17 15 63 -3 78 -18 15
-86 23 -103 12z"/>
<path d="M35 582 c2 -3 -4 -11 -15 -19 -19 -13 -20 -26 -20 -217 0 -168 3
-206 15 -216 8 -7 13 -15 11 -19 -2 -3 48 -5 112 -5 80 1 101 -1 67 -5 l-50
-7 50 -5 50 -5 -51 -2 c-32 -1 -56 -8 -64 -17 -7 -8 -15 -13 -19 -10 -4 2 -5
-9 -3 -26 l4 -29 208 0 208 0 4 29 c2 17 1 28 -3 26 -4 -3 -12 2 -19 10 -8 10
-31 15 -69 15 -35 0 -51 3 -42 9 11 7 11 9 0 14 -8 4 38 5 103 4 64 -1 114 1
112 4 -2 4 3 12 11 19 12 10 15 47 15 211 0 183 -2 201 -19 218 -11 11 -17 22
-14 24 5 5 -1 5 -58 -7 -15 -3 -29 -14 -31 -23 -4 -15 2 -18 40 -18 l45 0 1
-162 1 -162 -282 -1 c-222 0 -283 2 -283 12 0 9 -3 8 -10 -2 -6 -10 -10 39
-10 147 0 89 4 164 8 167 5 3 29 6 54 7 33 2 45 6 41 16 -3 7 -15 15 -27 17
-47 10 -76 13 -71 8z m576 -409 c-11 -5 -11 -7 0 -14 8 -5 -113 -9 -283 -9
-258 0 -298 2 -298 15 0 13 39 15 298 14 163 0 291 -3 283 -6z"/>
</g>
</svg>
